<mxfile host="app.diagrams.net" agent="Mozilla/5.0 (Windows NT 10.0; Win64; x64) AppleWebKit/537.36 (KHTML, like Gecko) Chrome/137.0.0.0 Safari/537.36" version="27.1.6">
  <diagram name="PÃ¡gina-1" id="oGm7Z6olsumDdi2WWUQo">
    <mxGraphModel grid="1" page="1" gridSize="10" guides="1" tooltips="1" connect="1" arrows="1" fold="1" pageScale="1" pageWidth="2339" pageHeight="3300" math="0" shadow="0">
      <root>
        <mxCell id="0" />
        <mxCell id="1" parent="0" />
        <mxCell id="L41pdcuZdGw4nhIuiry7-2" value="&amp;lt;&amp;lt;device&amp;gt;&amp;gt;&lt;div&gt;Servidor Ubuntu ETSISI&lt;/div&gt;" style="verticalAlign=top;align=left;shape=cube;size=10;direction=south;fontStyle=0;html=1;boundedLbl=1;spacingLeft=5;whiteSpace=wrap;" vertex="1" parent="1">
          <mxGeometry x="680" y="180" width="750" height="460" as="geometry" />
        </mxCell>
        <mxCell id="L41pdcuZdGw4nhIuiry7-5" value="&amp;lt;&amp;lt;Execution Environment&amp;gt;&amp;gt;&lt;div&gt;Docker&lt;/div&gt;" style="verticalAlign=top;align=center;shape=cube;size=10;direction=south;html=1;boundedLbl=1;spacingLeft=5;whiteSpace=wrap;" vertex="1" parent="L41pdcuZdGw4nhIuiry7-2">
          <mxGeometry x="50" y="70" width="570" height="340" as="geometry" />
        </mxCell>
        <mxCell id="L41pdcuZdGw4nhIuiry7-4" value="&amp;lt;&amp;lt;Docker Image&amp;gt;&amp;gt;&lt;div&gt;mi_app:bioloid_v5&lt;/div&gt;" style="verticalAlign=top;align=center;shape=cube;size=10;direction=south;html=1;boundedLbl=1;spacingLeft=5;whiteSpace=wrap;" vertex="1" parent="L41pdcuZdGw4nhIuiry7-2">
          <mxGeometry x="100" y="130" width="480" height="250" as="geometry" />
        </mxCell>
        <mxCell id="L41pdcuZdGw4nhIuiry7-3" value="&amp;lt;&amp;lt;Simulator&amp;gt;&amp;gt;&lt;div&gt;Webots&lt;/div&gt;" style="verticalAlign=top;align=center;shape=cube;size=10;direction=south;html=1;boundedLbl=1;spacingLeft=5;whiteSpace=wrap;" vertex="1" parent="L41pdcuZdGw4nhIuiry7-2">
          <mxGeometry width="140" height="110" relative="1" as="geometry">
            <mxPoint x="140" y="210" as="offset" />
          </mxGeometry>
        </mxCell>
        <mxCell id="L41pdcuZdGw4nhIuiry7-9" style="edgeStyle=orthogonalEdgeStyle;rounded=0;orthogonalLoop=1;jettySize=auto;html=1;exitX=0;exitY=0;exitDx=45;exitDy=120;exitPerimeter=0;" edge="1" parent="L41pdcuZdGw4nhIuiry7-2" source="L41pdcuZdGw4nhIuiry7-8" target="L41pdcuZdGw4nhIuiry7-3">
          <mxGeometry relative="1" as="geometry">
            <Array as="points">
              <mxPoint x="420" y="265" />
            </Array>
          </mxGeometry>
        </mxCell>
        <mxCell id="CVIb-3-DI5iGIQ8RoKzn-1" value="inicia" style="edgeLabel;html=1;align=center;verticalAlign=middle;resizable=0;points=[];" connectable="0" vertex="1" parent="L41pdcuZdGw4nhIuiry7-9">
          <mxGeometry x="0.2667" y="2" relative="1" as="geometry">
            <mxPoint x="15" as="offset" />
          </mxGeometry>
        </mxCell>
        <mxCell id="L41pdcuZdGw4nhIuiry7-8" value="&amp;lt;&amp;lt;Executable&amp;gt;&amp;gt;&lt;div&gt;run_simulation.py&lt;/div&gt;" style="verticalAlign=top;align=center;shape=cube;size=10;direction=south;html=1;boundedLbl=1;spacingLeft=5;whiteSpace=wrap;" vertex="1" parent="L41pdcuZdGw4nhIuiry7-2">
          <mxGeometry x="420" y="210" width="120" height="100" as="geometry" />
        </mxCell>
      </root>
    </mxGraphModel>
  </diagram>
</mxfile>
